<svg width="50" height="50" viewBox="0 0 50 50" fill="none" xmlns="http://www.w3.org/2000/svg">
<rect width="50" height="50" rx="15" fill="#C4C4C4"/>
<path d="M25.0001 24.2222C26.0769 24.2222 27.1295 23.9029 28.0249 23.3047C28.9202 22.7064 29.618 21.8561 30.0301 20.8613C30.4422 19.8664 30.55 18.7717 30.3399 17.7156C30.1299 16.6595 29.6113 15.6894 28.8499 14.928C28.0885 14.1665 27.1184 13.648 26.0623 13.4379C25.0061 13.2279 23.9115 13.3357 22.9166 13.7477C21.9218 14.1598 21.0715 14.8577 20.4732 15.753C19.875 16.6483 19.5557 17.701 19.5557 18.7778C19.5557 20.2217 20.1293 21.6065 21.1503 22.6276C22.1713 23.6486 23.5562 24.2222 25.0001 24.2222ZM25.0001 14.8889C25.7693 14.8889 26.5211 15.117 27.1607 15.5443C27.8002 15.9716 28.2986 16.5789 28.593 17.2895C28.8873 18.0001 28.9643 18.7821 28.8143 19.5364C28.6642 20.2908 28.2938 20.9837 27.75 21.5276C27.2061 22.0715 26.5132 22.4419 25.7588 22.5919C25.0044 22.742 24.2225 22.665 23.5119 22.3706C22.8013 22.0763 22.1939 21.5778 21.7666 20.9383C21.3393 20.2988 21.1112 19.5469 21.1112 18.7778C21.1112 17.7464 21.5209 16.7572 22.2502 16.0279C22.9796 15.2986 23.9687 14.8889 25.0001 14.8889Z" fill="white"/>
<path d="M34.6987 29.9544C33.4514 28.6361 31.9483 27.586 30.2813 26.8684C28.6144 26.1507 26.8185 25.7806 25.0037 25.7806C23.1888 25.7806 21.393 26.1507 19.726 26.8684C18.0591 27.586 16.556 28.6361 15.3087 29.9544C15.0383 30.2433 14.8881 30.6243 14.8887 31.02V35.1111C14.8887 35.5237 15.0526 35.9193 15.3443 36.211C15.636 36.5028 16.0317 36.6667 16.4442 36.6667H33.5553C33.9679 36.6667 34.3636 36.5028 34.6553 36.211C34.947 35.9193 35.1109 35.5237 35.1109 35.1111V31.02C35.1136 30.6254 34.9663 30.2445 34.6987 29.9544ZM33.5553 35.1111H16.4442V31.0122C17.5465 29.8515 18.8735 28.9272 20.3443 28.2957C21.8151 27.6641 23.3991 27.3384 24.9998 27.3384C26.6005 27.3384 28.1845 27.6641 29.6553 28.2957C31.1261 28.9272 32.4531 29.8515 33.5553 31.0122V35.1111Z" fill="white"/>
</svg>
