<svg width="50" height="50" viewBox="0 0 50 50" fill="none" xmlns="http://www.w3.org/2000/svg">
<rect width="50" height="50" rx="15" fill="#C4C4C4"/>
<path d="M15.2501 18C15.0777 18 14.9124 18.0737 14.7905 18.205C14.6686 18.3363 14.6001 18.5143 14.6001 18.7C14.6001 18.8857 14.6686 19.0637 14.7905 19.195C14.9124 19.3263 15.0777 19.4 15.2501 19.4H34.7501C34.9225 19.4 35.0878 19.3263 35.2097 19.195C35.3316 19.0637 35.4001 18.8857 35.4001 18.7C35.4001 18.5143 35.3316 18.3363 35.2097 18.205C35.0878 18.0737 34.9225 18 34.7501 18H15.2501Z" fill="white"/>
<path d="M15.2501 22.2C15.0777 22.2 14.9124 22.2737 14.7905 22.405C14.6686 22.5363 14.6001 22.7143 14.6001 22.9C14.6001 23.0856 14.6686 23.2637 14.7905 23.3949C14.9124 23.5262 15.0777 23.6 15.2501 23.6H34.7501C34.9225 23.6 35.0878 23.5262 35.2097 23.3949C35.3316 23.2637 35.4001 23.0856 35.4001 22.9C35.4001 22.7143 35.3316 22.5363 35.2097 22.405C35.0878 22.2737 34.9225 22.2 34.7501 22.2H15.2501Z" fill="white"/>
<path d="M14.6001 27.1C14.6001 26.9144 14.6686 26.7363 14.7905 26.605C14.9124 26.4738 15.0777 26.4 15.2501 26.4H34.7501C34.9225 26.4 35.0878 26.4738 35.2097 26.605C35.3316 26.7363 35.4001 26.9144 35.4001 27.1C35.4001 27.2857 35.3316 27.4637 35.2097 27.595C35.0878 27.7263 34.9225 27.8 34.7501 27.8H15.2501C15.0777 27.8 14.9124 27.7263 14.7905 27.595C14.6686 27.4637 14.6001 27.2857 14.6001 27.1Z" fill="white"/>
<path d="M15.2501 30.6C15.0777 30.6 14.9124 30.6737 14.7905 30.805C14.6686 30.9363 14.6001 31.1143 14.6001 31.3C14.6001 31.4856 14.6686 31.6637 14.7905 31.795C14.9124 31.9262 15.0777 32 15.2501 32H28.2501C28.4225 32 28.5878 31.9262 28.7097 31.795C28.8316 31.6637 28.9001 31.4856 28.9001 31.3C28.9001 31.1143 28.8316 30.9363 28.7097 30.805C28.5878 30.6737 28.4225 30.6 28.2501 30.6H15.2501Z" fill="white"/>
</svg>
