<svg width="50" height="50" viewBox="0 0 50 50" fill="none" xmlns="http://www.w3.org/2000/svg">
<rect width="50" height="50" rx="15" fill="#C4C4C4"/>
<path d="M18.063 11L20.563 12.813C25.277 16.211 26.707 19.543 27 20.281L26.094 21.187V21.219L25.406 21.906L13.687 34.062L13 34.782L17.25 39.032L17.969 38.282L30.375 25.437L30.688 25.062L30.781 25L31.75 24.656L31.938 24.844L31.563 25.75L31.281 26.375L34.594 29.688L40.969 23.313L38.125 20.469L37.656 20.031L37.063 20.25L36.156 20.594L35.938 20.375L36.25 19.375L36.375 18.969L36.187 18.594C36.187 18.594 35.134 16.637 32.75 14.75C30.367 12.863 26.594 11 21.156 11H18.063ZM24.093 13.25C27.461 13.75 29.891 15.016 31.531 16.313C33.297 17.71 34 18.842 34.22 19.219L33.845 20.375L33.688 20.938L34.095 21.375L35.688 22.969L36.313 22.719L37.188 22.375L38.126 23.313L34.595 26.843L33.657 25.906L34.032 25L34.314 24.375L33.814 23.906L32.689 22.781L32.251 22.312L31.626 22.532L29.845 23.25L29.657 23.313L28.939 22.625L28.219 21.906L29.376 20.75L29.157 20.156C29.157 20.156 27.814 16.762 24.095 13.25H24.093ZM26.813 23.313L28.25 24.75L17.219 36.156L15.812 34.75L26.813 23.313Z" fill="white"/>
</svg>
