<svg width="91" height="46" viewBox="0 0 91 46" fill="none" xmlns="http://www.w3.org/2000/svg">
<rect width="91" height="46" rx="23" fill="black"/>
<circle cx="23" cy="23" r="20" fill="white"/>
<path d="M21.502 12.414C21.0436 14.3712 20.9813 16.4004 21.3187 18.382C21.6561 20.3637 22.3864 22.2579 23.4667 23.9531C24.5469 25.6484 25.9554 27.1105 27.6091 28.2533C29.2628 29.3962 31.1283 30.1968 33.096 30.608C32.0615 31.6784 30.8225 32.53 29.4526 33.1124C28.0826 33.6947 26.6096 33.9959 25.121 33.998C24.983 33.998 24.843 34.003 24.703 33.998C22.1114 33.9067 19.6336 32.9104 17.7002 31.1822C15.7668 29.454 14.4999 27.1031 14.1196 24.5379C13.7393 21.9727 14.2696 19.3553 15.6184 17.1405C16.9673 14.9256 19.0494 13.2533 21.503 12.414H21.502ZM22.98 10C22.9213 10.0002 22.8628 10.0056 22.805 10.016C19.6216 10.5825 16.7604 12.3067 14.7721 14.8565C12.7839 17.4064 11.8092 20.6016 12.0357 23.8271C12.2623 27.0525 13.6741 30.0801 15.9993 32.327C18.3245 34.5738 21.3987 35.8811 24.63 35.997C24.794 36.003 24.958 35.997 25.12 35.997C27.219 35.9984 29.2874 35.4943 31.1503 34.5274C33.0133 33.5605 34.616 32.1592 35.823 30.442C35.9208 30.294 35.9779 30.1229 35.9885 29.9458C35.9992 29.7687 35.963 29.592 35.8836 29.4333C35.8042 29.2747 35.6845 29.1397 35.5364 29.0421C35.3883 28.9444 35.2171 28.8875 35.04 28.877C33.0423 28.7017 31.1116 28.0693 29.3972 27.0288C27.6828 25.9884 26.2307 24.5676 25.1529 22.8764C24.0752 21.1852 23.4008 19.2688 23.1818 17.2754C22.9628 15.2819 23.2051 13.2648 23.89 11.38C23.9483 11.2291 23.9697 11.0665 23.9523 10.9057C23.935 10.7449 23.8796 10.5906 23.7905 10.4556C23.7015 10.3206 23.5815 10.2088 23.4405 10.1295C23.2995 10.0503 23.1416 10.0059 22.98 10V10Z" fill="black"/>
</svg>
