<svg width="40" height="40" viewBox="0 0 40 40" fill="none" xmlns="http://www.w3.org/2000/svg">
<circle cx="20" cy="20" r="20" fill="black"/>
<path d="M28.3175 12.5436C26.7875 11.8302 25.1475 11.3029 23.4325 11.0031C23.4172 11 23.4014 11.002 23.3873 11.0086C23.3731 11.0153 23.3613 11.0264 23.3535 11.0403C23.1435 11.4218 22.9095 11.9191 22.7455 12.312C20.9266 12.031 19.0774 12.031 17.2585 12.312C17.0758 11.8766 16.8698 11.452 16.6415 11.0403C16.6338 11.0262 16.622 11.0149 16.6079 11.0079C16.5938 11.0008 16.578 10.9984 16.5625 11.001C14.8485 11.3008 13.2085 11.8281 11.6775 12.5425C11.6643 12.5483 11.6531 12.558 11.6455 12.5705C8.53348 17.3006 7.68048 21.9139 8.09948 26.4693C8.10065 26.4804 8.104 26.4912 8.10933 26.501C8.11466 26.5108 8.12185 26.5193 8.13048 26.5262C9.94688 27.8934 11.9728 28.935 14.1235 29.6072C14.1385 29.612 14.1545 29.612 14.1695 29.6072C14.1845 29.6024 14.1977 29.593 14.2075 29.5803C14.6695 28.9393 15.0815 28.2621 15.4335 27.5508C15.4545 27.5094 15.4345 27.4598 15.3925 27.4432C14.7465 27.1917 14.1206 26.8882 13.5205 26.5355C13.5097 26.5291 13.5006 26.5201 13.494 26.5092C13.4875 26.4983 13.4836 26.4859 13.4828 26.4731C13.482 26.4603 13.4843 26.4474 13.4895 26.4358C13.4947 26.4241 13.5026 26.4139 13.5125 26.4062C13.6385 26.3101 13.7645 26.2098 13.8845 26.1095C13.8953 26.1005 13.9083 26.0947 13.9221 26.0929C13.9358 26.0911 13.9498 26.0932 13.9625 26.0991C17.8895 27.923 22.1425 27.923 26.0235 26.0991C26.0362 26.0929 26.0503 26.0904 26.0643 26.0921C26.0783 26.0937 26.0915 26.0994 26.1025 26.1085C26.2225 26.2098 26.3475 26.3101 26.4745 26.4062C26.4845 26.4138 26.4925 26.4238 26.4979 26.4354C26.5032 26.4469 26.5057 26.4597 26.5051 26.4725C26.5045 26.4853 26.5009 26.4978 26.4945 26.5087C26.4881 26.5197 26.4792 26.5289 26.4685 26.5355C25.8705 26.8911 25.2485 27.192 24.5955 27.4422C24.5855 27.446 24.5763 27.4519 24.5687 27.4596C24.5611 27.4673 24.5551 27.4766 24.5512 27.4869C24.5474 27.4972 24.5456 27.5082 24.5462 27.5192C24.5468 27.5302 24.5496 27.541 24.5545 27.5508C24.9145 28.261 25.3265 28.9372 25.7795 29.5793C25.7889 29.5925 25.802 29.6023 25.8171 29.6075C25.8321 29.6127 25.8483 29.6129 25.8635 29.6082C28.0179 28.9379 30.0471 27.8958 31.8655 26.5262C31.8744 26.5197 31.8818 26.5114 31.8874 26.5018C31.8929 26.4922 31.8963 26.4814 31.8975 26.4703C32.3975 21.2036 31.0595 16.6275 28.3485 12.5725C28.3419 12.5593 28.3309 12.5491 28.3175 12.5436ZM16.0205 23.6953C14.8385 23.6953 13.8635 22.5901 13.8635 21.2346C13.8635 19.8781 14.8195 18.7739 16.0205 18.7739C17.2305 18.7739 18.1965 19.8874 18.1775 21.2346C18.1775 22.5911 17.2215 23.6953 16.0205 23.6953V23.6953ZM23.9955 23.6953C22.8125 23.6953 21.8385 22.5901 21.8385 21.2346C21.8385 19.8781 22.7935 18.7739 23.9955 18.7739C25.2055 18.7739 26.1715 19.8874 26.1525 21.2346C26.1525 22.5911 25.2065 23.6953 23.9955 23.6953V23.6953Z" fill="white"/>
</svg>
