<svg width="40" height="40" viewBox="0 0 40 40" fill="none" xmlns="http://www.w3.org/2000/svg">
<circle cx="20" cy="20" r="20" fill="black"/>
<path d="M28.454 14.7699C29.3504 14.2158 30.0211 13.3434 30.341 12.3154C29.4986 12.8322 28.577 13.1962 27.616 13.3917C26.9678 12.6828 26.1121 12.214 25.1808 12.0576C24.2495 11.9011 23.2943 12.0657 22.4624 12.526C21.6305 12.9862 20.9681 13.7166 20.5773 14.6045C20.1866 15.4925 20.0891 16.4886 20.3 17.4395C18.5939 17.3509 16.9248 16.8924 15.4012 16.0937C13.8776 15.295 12.5334 14.174 11.456 12.8034C10.9081 13.7806 10.7404 14.9367 10.987 16.037C11.2337 17.1374 11.8762 18.0994 12.784 18.7277C12.1027 18.7051 11.4365 18.5143 10.841 18.1715V18.2273C10.8412 19.2519 11.1841 20.2448 11.8117 21.0378C12.4392 21.8308 13.3127 22.3749 14.284 22.578C13.6521 22.7557 12.9892 22.7819 12.346 22.6545C12.6207 23.5357 13.1547 24.3063 13.8734 24.8586C14.5921 25.411 15.4597 25.7175 16.355 25.7355C14.8348 26.9691 12.9575 27.6381 11.025 27.6348C10.682 27.6348 10.34 27.6142 10 27.5738C11.9624 28.8776 14.2464 29.5696 16.579 29.5672C18.1856 29.5786 19.7784 29.2598 21.2648 28.6294C22.7512 27.999 24.1017 27.0694 25.2377 25.8948C26.3737 24.7201 27.2727 23.3238 27.8823 21.7869C28.492 20.25 28.8001 18.6032 28.789 16.9421C28.789 16.7498 28.785 16.5586 28.776 16.3683C29.6164 15.7404 30.3418 14.9624 30.918 14.071C30.135 14.4298 29.3044 14.6654 28.454 14.7699V14.7699Z" fill="white"/>
</svg>
